<svg width="56" height="55" viewBox="0 0 56 55" fill="none" xmlns="http://www.w3.org/2000/svg">
<path fill-rule="evenodd" clip-rule="evenodd" d="M28.2597 55.0006C21.7332 55.0164 15.1495 54.5528 8.51249 53.5691C6.80055 53.3158 5.29212 52.5333 4.13875 51.3801C2.99215 50.2313 2.21422 48.7252 1.96545 47.0178C0.990744 40.3487 0.502289 33.7502 0.500032 27.2217C0.495509 20.684 0.977208 14.2817 1.93836 8.01316C2.19617 6.32614 2.96957 4.83588 4.10262 3.69842C5.23336 2.56322 6.72141 1.78979 8.41528 1.52296C14.9712 0.496309 21.5092 -0.00572917 28.0293 0.00104418C34.5494 0.00782795 41.0463 0.521168 47.5235 1.52296C49.2286 1.78528 50.7257 2.56774 51.861 3.71197C53.0031 4.86304 53.7743 6.37141 54.0208 8.07876C54.9955 14.822 55.4885 21.4547 55.4998 27.9768C55.5111 34.478 55.0339 40.8444 54.0683 47.0678C53.8037 48.7683 53.0257 50.2609 51.8837 51.3916C50.7348 52.5314 49.2332 53.3025 47.5348 53.5535C41.2185 54.4852 34.7981 54.9804 28.2624 54.9963L28.2597 55.0006ZM25.6409 24.2432V42.5087C25.6409 43.8112 26.697 44.8673 27.9996 44.8673C29.3022 44.8673 30.3583 43.8112 30.3583 42.5087V24.2322C33.1603 25.9757 35.1753 28.3276 36.1184 31.4733C36.4892 32.7193 37.8009 33.4294 39.047 33.0563C40.2931 32.6855 41.0032 31.3739 40.6301 30.1278C39.2618 25.5643 36.2473 22.1584 32.0681 19.7796C29.404 18.2645 26.2763 18.321 23.6664 19.9289C19.8784 22.2626 17.228 25.7314 15.4617 29.8793C14.9528 31.0756 15.5092 32.4551 16.7055 32.9639C17.9018 33.4727 19.2813 32.9164 19.7901 31.7201C21.095 28.6559 22.9585 26.053 25.6403 24.244L25.6409 24.2432ZM38.373 14.856C39.6756 14.856 40.7317 13.8 40.7317 12.4974C40.7317 11.1948 39.6756 10.1388 38.373 10.1388H17.626C16.3234 10.1388 15.2673 11.1948 15.2673 12.4974C15.2673 13.8 16.3234 14.856 17.626 14.856H38.373Z" fill="#3E71C0"/>
</svg>
