<svg width="18" height="18" viewBox="0 0 18 18" fill="none" xmlns="http://www.w3.org/2000/svg">
<path d="M17.7744 6.96804C17.7512 6.90908 17.7203 6.85343 17.6825 6.80254C17.5227 6.59786 17.3163 6.43416 17.0806 6.32498C16.8448 6.2158 16.5865 6.16428 16.3268 6.17468H16.235C16.0866 6.17085 15.9418 6.1279 15.8153 6.05019C15.6889 5.97247 15.5852 5.86275 15.5148 5.73212C15.5115 5.73239 15.5081 5.73193 15.5049 5.73076C15.5017 5.72959 15.4988 5.72774 15.4964 5.72535C15.494 5.72295 15.4922 5.72006 15.491 5.71688C15.4898 5.71371 15.4894 5.71031 15.4896 5.70693C15.3942 5.54142 15.3096 5.4047 15.2124 5.23919C15.2074 5.23803 15.203 5.23529 15.1998 5.2314C15.1965 5.22751 15.1946 5.22266 15.1944 5.2176C15.1153 5.0883 15.0714 4.94063 15.067 4.78918C15.0626 4.63774 15.0978 4.48776 15.1692 4.35407C15.1809 4.34594 15.191 4.33555 15.1987 4.32351C15.2064 4.31146 15.2117 4.298 15.2142 4.28391C15.3498 4.05375 15.4325 3.7963 15.4561 3.53025C15.4798 3.26419 15.4439 2.99621 15.351 2.74575C15.3334 2.68431 15.302 2.6277 15.2592 2.58024C14.9526 2.29065 14.6305 2.01799 14.2941 1.76349C14.2491 1.7419 14.1987 1.71851 14.1321 1.69333C13.8726 1.64006 13.6042 1.64827 13.3485 1.71732C13.0927 1.78636 12.8567 1.91431 12.6594 2.09091C12.6329 2.09835 12.6095 2.11412 12.5927 2.13588C12.4519 2.25583 12.2718 2.31985 12.0868 2.31579C11.9752 2.3138 11.8651 2.28996 11.7628 2.24562C11.5917 2.17253 11.4153 2.1124 11.2352 2.06572C11.0937 2.01537 10.9682 1.92838 10.8714 1.81364C10.7746 1.6989 10.71 1.56053 10.6843 1.41268C10.6792 1.38129 10.6707 1.35054 10.6591 1.32093C10.6258 1.05603 10.5289 0.803111 10.3765 0.583807C10.2241 0.364502 10.0209 0.185333 9.78408 0.0616176C9.73533 0.033572 9.68011 0.018692 9.62385 0.0184412C9.21072 -0.00614707 8.79649 -0.00614707 8.38336 0.0184412C8.32707 0.0235359 8.27217 0.0387735 8.22132 0.0634167C7.98481 0.192969 7.78228 0.376518 7.63022 0.599109C7.47817 0.821701 7.38089 1.07704 7.34631 1.34432C7.33679 1.35314 7.32953 1.36412 7.32515 1.37633C7.32076 1.38854 7.31937 1.40162 7.32111 1.41448C7.29814 1.56339 7.23459 1.7031 7.1374 1.81829C7.04022 1.93349 6.91317 2.01972 6.77018 2.06752C6.61174 2.1125 6.42629 2.18266 6.24265 2.24742C6.13633 2.27282 6.0278 2.28788 5.91858 2.2924C5.73455 2.29066 5.55641 2.22731 5.41266 2.1125C5.39105 2.08731 5.36765 2.08731 5.34604 2.06392C5.14923 1.88646 4.91325 1.75795 4.65733 1.68886C4.4014 1.61978 4.13277 1.61206 3.87329 1.66634C3.81223 1.66788 3.75414 1.69303 3.71126 1.7365C3.36292 1.97569 3.03907 2.24867 2.74443 2.55146C2.70585 2.60182 2.67492 2.65759 2.65261 2.71697C2.55509 2.96652 2.51671 3.23524 2.54044 3.50209C2.56418 3.76893 2.6494 4.02667 2.78944 4.25513C2.80645 4.27717 2.82151 4.30064 2.83445 4.32529C2.90545 4.45908 2.94046 4.60901 2.93604 4.76038C2.93162 4.91176 2.88793 5.05939 2.80924 5.18882C2.80587 5.18855 2.80247 5.18901 2.79929 5.19018C2.7961 5.19135 2.79322 5.1932 2.79082 5.19559C2.78842 5.19799 2.78657 5.20087 2.7854 5.20405C2.78423 5.20723 2.78377 5.21063 2.78404 5.214C2.68513 5.36331 2.59728 5.51964 2.52118 5.68175C2.5178 5.68148 2.5144 5.68194 2.51122 5.68311C2.50804 5.68428 2.50515 5.68613 2.50275 5.68852C2.50035 5.69092 2.49851 5.6938 2.49734 5.69698C2.49616 5.70016 2.4957 5.70356 2.49597 5.70693C2.42967 5.84086 2.32694 5.95341 2.19957 6.03168C2.0722 6.10996 1.92533 6.15079 1.7758 6.14949H1.68218C1.42272 6.14281 1.16525 6.19636 0.93001 6.30593C0.694769 6.4155 0.488171 6.5781 0.32646 6.78095C0.283627 6.8284 0.252219 6.88501 0.234639 6.94646C0.124675 7.3755 0.046446 7.81204 0.000583541 8.25254C-0.0024112 8.31356 0.00614029 8.37459 0.0257895 8.43244C0.110054 8.67685 0.248819 8.89892 0.431597 9.08187C0.614375 9.26482 0.836382 9.40385 1.08084 9.48847C1.11213 9.49415 1.14285 9.50257 1.17266 9.51365C1.3129 9.56234 1.43667 9.64934 1.52991 9.76477C1.62316 9.88021 1.68215 10.0195 1.70018 10.1667V10.1919C1.71818 10.3737 1.74887 10.554 1.792 10.7316V10.7568C1.81764 10.9049 1.8057 11.0572 1.75726 11.1995C1.70882 11.3419 1.62544 11.4699 1.51474 11.5717C1.48827 11.5792 1.46491 11.5949 1.44812 11.6167C1.24907 11.7773 1.08817 11.9799 0.977015 12.2102C0.865864 12.4404 0.80724 12.6924 0.805373 12.948C0.810969 13.0099 0.826154 13.0706 0.850383 13.1279C1.05292 13.54 1.28331 13.9379 1.53995 14.3188C1.55042 14.3517 1.56863 14.3817 1.59307 14.4061C1.61751 14.4305 1.64745 14.4487 1.68038 14.4592C1.8982 14.5814 2.14076 14.6532 2.39008 14.669C2.63941 14.6849 2.88912 14.6445 3.12072 14.5509C3.13693 14.5541 3.15367 14.5535 3.16961 14.5492C3.18555 14.5448 3.20025 14.5368 3.21254 14.5257C3.30173 14.4951 3.3955 14.4799 3.4898 14.4807C3.59056 14.4804 3.69056 14.498 3.78507 14.5329C3.88497 14.5714 3.97846 14.6248 4.06234 14.6912L4.47644 15.051L4.50164 15.0762C4.61536 15.1709 4.70265 15.2935 4.75501 15.4318C4.80738 15.5702 4.82305 15.7198 4.80051 15.866C4.7833 15.8934 4.77454 15.9253 4.77531 15.9577C4.72396 16.204 4.72633 16.4584 4.78225 16.7037C4.83817 16.9489 4.94634 17.1792 5.09938 17.379C5.14421 17.4288 5.19955 17.4682 5.26142 17.4941C5.68137 17.7018 6.12186 17.8652 6.57573 17.9816C6.64257 18.0061 6.71594 18.0061 6.78278 17.9816C7.02635 17.9318 7.25578 17.8285 7.45445 17.6791C7.65313 17.5298 7.81606 17.3382 7.93145 17.1181C7.94846 17.0961 7.96352 17.0726 7.97646 17.0479C8.04384 16.9128 8.15012 16.8008 8.28165 16.7264C8.41319 16.6521 8.56397 16.6187 8.71463 16.6306H9.29077C9.44011 16.6268 9.58766 16.6636 9.71768 16.7372C9.84769 16.8107 9.95528 16.9181 10.0289 17.0479C10.046 17.07 10.061 17.0935 10.074 17.1181C10.1891 17.3383 10.352 17.5301 10.5507 17.6795C10.7494 17.8288 10.979 17.9321 11.2226 17.9816H11.3144C11.3397 17.9816 11.3811 17.9816 11.3523 17.9331C11.798 17.7941 12.2356 17.6301 12.663 17.4419C12.7253 17.4169 12.7809 17.3774 12.825 17.3268C13.0716 17.0339 13.2051 16.6625 13.2013 16.2798C13.201 16.1698 13.1902 16.0602 13.1689 15.9523C13.1722 15.9042 13.1636 15.856 13.1437 15.812C13.1252 15.6668 13.1455 15.5193 13.2024 15.3844C13.2593 15.2495 13.3508 15.132 13.4678 15.0438C13.463 15.0391 13.4603 15.0326 13.4603 15.0258C13.4603 15.0191 13.463 15.0126 13.4678 15.0079C13.4725 15.0031 13.479 15.0004 13.4858 15.0004C13.4925 15.0004 13.499 15.0031 13.5038 15.0079C13.6516 14.8997 13.7901 14.7793 13.9179 14.6481H13.9431C14.0936 14.5111 14.2904 14.4359 14.494 14.4376C14.5614 14.437 14.6286 14.4455 14.6938 14.4628C14.7205 14.4682 14.7465 14.4766 14.7713 14.4879C14.8025 14.4936 14.8333 14.502 14.8631 14.5131C14.9614 14.5496 15.0626 14.5779 15.1656 14.5977C15.2711 14.6189 15.3784 14.6298 15.486 14.6301C15.7762 14.6326 16.0622 14.5601 16.316 14.4196L16.4565 14.2793C16.7266 13.907 16.9577 13.5079 17.146 13.0883C17.1744 13.0325 17.1898 12.971 17.191 12.9084C17.1865 12.6533 17.1266 12.4022 17.0157 12.1724C16.9047 11.9426 16.7453 11.7395 16.5483 11.5771C16.5267 11.5555 16.5033 11.5322 16.4817 11.507C16.3779 11.4206 16.2979 11.3091 16.2494 11.1832C16.2009 11.0572 16.1854 10.921 16.2044 10.7874V10.7604C16.2472 10.5828 16.2779 10.4024 16.2962 10.2207V10.2009C16.3844 9.66837 16.7787 9.53524 16.8255 9.53524C16.8434 9.5388 16.862 9.53769 16.8793 9.53202C16.8966 9.52634 16.9122 9.5163 16.9246 9.50286C17.1677 9.41966 17.3887 9.28209 17.5706 9.10065C17.7525 8.9192 17.8905 8.69866 17.9742 8.45583C17.9939 8.39798 18.0024 8.33695 17.9994 8.27593C17.9603 7.83456 17.885 7.39713 17.7744 6.96804ZM9.0027 12.7933C8.27084 12.7993 7.55365 12.5881 6.94202 12.1865C6.3304 11.7848 5.85188 11.2108 5.56711 10.5371C5.28234 9.86338 5.20413 9.12038 5.3424 8.40223C5.48068 7.68408 5.8292 7.02312 6.34381 6.5031C6.85842 5.98308 7.51595 5.62743 8.23306 5.4812C8.95017 5.33498 9.69459 5.40477 10.372 5.68174C11.0493 5.9587 11.6292 6.43037 12.038 7.03696C12.4468 7.64356 12.6662 8.35777 12.6684 9.08909C12.6729 9.5733 12.5814 10.0536 12.3993 10.5024C12.2172 10.9511 11.9481 11.3594 11.6073 11.7037C11.2666 12.0481 10.861 12.3216 10.414 12.5086C9.96695 12.6956 9.48731 12.7923 9.0027 12.7933Z" fill="white"/>
</svg>
